<svg xmlns="http://www.w3.org/2000/svg" viewBox="0 0 1200 675" role="img" aria-labelledby="title desc">
  <title id="title">Yarn Petals sales dashboard preview</title>
  <desc id="desc">A pink Power BI-style sales dashboard with KPI cards, slicers, donut charts, trend columns, and a state bar chart.</desc>
  <rect width="1200" height="675" fill="#fde8ef"/>
  <rect x="8" y="8" width="1184" height="48" fill="#fff8fb" stroke="#ff74ad" stroke-width="2"/>
  <text x="24" y="40" fill="#9b6b7a" font-family="Segoe UI, Arial, sans-serif" font-size="26" font-weight="700">Yarn Petals: Sales Dashboard</text>
  <rect x="998" y="16" width="90" height="30" fill="#fff8fb" stroke="#f3bad0"/>
  <text x="1018" y="36" fill="#9b6b7a" font-family="Segoe UI, Arial, sans-serif" font-size="12">Net Sales</text>
  <rect x="1090" y="16" width="88" height="30" fill="#2c2c2c"/>
  <text x="1105" y="36" fill="#ffffff" font-family="Segoe UI, Arial, sans-serif" font-size="12">Orders Count</text>

  <g fill="#fff8fb" stroke="#ff74ad" stroke-width="2" font-family="Segoe UI, Arial, sans-serif">
    <rect x="8" y="62" width="188" height="52"/>
    <rect x="202" y="62" width="188" height="52"/>
    <rect x="396" y="62" width="188" height="52"/>
    <rect x="590" y="62" width="218" height="52"/>
    <rect x="814" y="62" width="188" height="52"/>
    <rect x="1008" y="62" width="184" height="52"/>
    <g fill="#9b6b7a" font-size="12">
      <text x="24" y="82">Product</text>
      <text x="218" y="82">Animals</text>
      <text x="412" y="82">Colour</text>
      <text x="606" y="82">Date</text>
      <text x="830" y="82">Occasions</text>
      <text x="1024" y="82">State</text>
    </g>
    <g fill="#d4607f" font-size="14">
      <text x="24" y="104">All</text>
      <text x="218" y="104">All</text>
      <text x="412" y="104">All</text>
      <text x="606" y="104">3/1/2025</text>
      <text x="704" y="104">1/27/2026</text>
      <text x="830" y="104">All</text>
      <text x="1024" y="104">All</text>
    </g>
  </g>

  <g font-family="Segoe UI, Arial, sans-serif">
    <rect x="8" y="122" width="256" height="104" rx="3" fill="#f9c8d9" stroke="#ffffff"/>
    <rect x="272" y="122" width="256" height="104" rx="3" fill="#f9c8d9" stroke="#ffffff"/>
    <rect x="536" y="122" width="256" height="104" rx="3" fill="#f9c8d9" stroke="#ffffff"/>
    <text x="106" y="158" fill="#d4607f" font-size="16">Net Sales</text>
    <text x="116" y="198" fill="#9b6b7a" font-size="38" font-weight="700">$7K</text>
    <text x="356" y="158" fill="#d4607f" font-size="16">Orders Count</text>
    <text x="372" y="198" fill="#9b6b7a" font-size="38" font-weight="700">139</text>
    <text x="632" y="158" fill="#d4607f" font-size="16">Total Customers</text>
    <text x="652" y="198" fill="#9b6b7a" font-size="38" font-weight="700">84</text>
  </g>

  <g fill="#ffffff" stroke="#f3bad0" stroke-width="2">
    <rect x="8" y="234" width="388" height="220"/>
    <rect x="404" y="234" width="388" height="220"/>
    <rect x="800" y="122" width="392" height="332"/>
    <rect x="8" y="462" width="289" height="205"/>
    <rect x="305" y="462" width="289" height="205"/>
    <rect x="602" y="462" width="289" height="205"/>
    <rect x="899" y="462" width="293" height="205"/>
  </g>

  <g font-family="Segoe UI, Arial, sans-serif" fill="#9b6b7a" font-size="15" font-weight="700">
    <text x="18" y="252">Orders Count by Sales Channel</text>
    <text x="416" y="252">Orders Count Trend</text>
    <text x="812" y="142">Orders Count by State</text>
    <text x="18" y="482">Orders Count by Colour</text>
    <text x="315" y="482">Orders Count by Product</text>
    <text x="612" y="482">Orders Count by Animal</text>
    <text x="909" y="482">Orders Count by Occasion</text>
  </g>

  <g transform="translate(150 345)">
    <circle r="72" fill="none" stroke="#ff7b70" stroke-width="42" stroke-dasharray="340 452" transform="rotate(-90)"/>
    <circle r="72" fill="none" stroke="#ffd2af" stroke-width="42" stroke-dasharray="55 452" stroke-dashoffset="-340" transform="rotate(-90)"/>
    <circle r="72" fill="none" stroke="#da70d6" stroke-width="42" stroke-dasharray="22 452" stroke-dashoffset="-395" transform="rotate(-90)"/>
    <circle r="46" fill="#ffffff"/>
  </g>

  <g transform="translate(500 270)" fill="#ff5aa8">
    <rect x="0" y="98" width="30" height="54"/>
    <rect x="48" y="48" width="30" height="104"/>
    <rect x="96" y="104" width="30" height="48"/>
    <rect x="144" y="136" width="30" height="16"/>
    <rect x="192" y="78" width="30" height="74"/>
    <rect x="240" y="84" width="30" height="68"/>
    <rect x="288" y="142" width="30" height="10"/>
    <rect x="336" y="104" width="30" height="48"/>
  </g>
  <g transform="translate(500 425) rotate(-35)" fill="#d4607f" font-family="Segoe UI, Arial, sans-serif" font-size="11">
    <text x="-6" y="0">2025-04</text>
    <text x="48" y="0">2025-05</text>
    <text x="102" y="0">2025-06</text>
    <text x="156" y="0">2025-07</text>
    <text x="210" y="0">2025-08</text>
    <text x="264" y="0">2025-09</text>
  </g>

  <g transform="translate(835 174)" fill="#e46f9a" font-family="Segoe UI, Arial, sans-serif">
    <text x="-22" y="30" fill="#d4607f" font-size="13">NG</text>
    <rect x="0" y="0" width="300" height="46"/>
    <text x="-26" y="90" fill="#d4607f" font-size="13">VIC</text>
    <rect x="0" y="60" width="164" height="46"/>
    <text x="-22" y="150" fill="#d4607f" font-size="13">US</text>
    <rect x="0" y="120" width="8" height="46"/>
    <text x="-30" y="210" fill="#d4607f" font-size="13">SYD</text>
    <rect x="0" y="180" width="5" height="46"/>
  </g>

  <g>
    <g transform="translate(112 568)">
      <circle r="52" fill="none" stroke="#88918e" stroke-width="32" stroke-dasharray="90 327" transform="rotate(-90)"/>
      <circle r="52" fill="none" stroke="#ff9965" stroke-width="32" stroke-dasharray="105 327" stroke-dashoffset="-90" transform="rotate(-90)"/>
      <circle r="52" fill="none" stroke="#ff9baa" stroke-width="32" stroke-dasharray="70 327" stroke-dashoffset="-195" transform="rotate(-90)"/>
      <circle r="32" fill="#ffffff"/>
    </g>
    <g transform="translate(410 568)">
      <circle r="52" fill="none" stroke="#283736" stroke-width="32" stroke-dasharray="95 327" transform="rotate(-90)"/>
      <circle r="52" fill="none" stroke="#ffe06f" stroke-width="32" stroke-dasharray="80 327" stroke-dashoffset="-95" transform="rotate(-90)"/>
      <circle r="52" fill="none" stroke="#ff9965" stroke-width="32" stroke-dasharray="70 327" stroke-dashoffset="-175" transform="rotate(-90)"/>
      <circle r="32" fill="#ffffff"/>
    </g>
    <g transform="translate(708 568)">
      <circle r="52" fill="none" stroke="#ff8a6f" stroke-width="32" stroke-dasharray="95 327" transform="rotate(-90)"/>
      <circle r="52" fill="none" stroke="#2d7882" stroke-width="32" stroke-dasharray="60 327" stroke-dashoffset="-95" transform="rotate(-90)"/>
      <circle r="52" fill="none" stroke="#b56164" stroke-width="32" stroke-dasharray="75 327" stroke-dashoffset="-155" transform="rotate(-90)"/>
      <circle r="32" fill="#ffffff"/>
    </g>
    <g transform="translate(1008 568)">
      <circle r="52" fill="none" stroke="#ff9965" stroke-width="32" stroke-dasharray="218 327" transform="rotate(-90)"/>
      <circle r="52" fill="none" stroke="#36a0bd" stroke-width="32" stroke-dasharray="75 327" stroke-dashoffset="-218" transform="rotate(-90)"/>
      <circle r="52" fill="none" stroke="#ff79a5" stroke-width="32" stroke-dasharray="34 327" stroke-dashoffset="-293" transform="rotate(-90)"/>
      <circle r="32" fill="#ffffff"/>
    </g>
  </g>
</svg>
